<?xml version="1.0" encoding="UTF-8"?>
<!DOCTYPE svg PUBLIC "-//W3C//DTD SVG 1.1//EN" "http://www.w3.org/Graphics/SVG/1.1/DTD/svg11.dtd">
<!-- Creator: CorelDRAW 2021 (64-Bit) -->
<svg xmlns="http://www.w3.org/2000/svg" xml:space="preserve" width="3.92194in" height="1.4952in" version="1.1" style="shape-rendering:geometricPrecision; text-rendering:geometricPrecision; image-rendering:optimizeQuality; fill-rule:evenodd; clip-rule:evenodd"
viewBox="0 0 815.29 310.82"
 xmlns:xlink="http://www.w3.org/1999/xlink"
 xmlns:xodm="http://www.corel.com/coreldraw/odm/2003">
 <defs>
  <style type="text/css">
   <![CDATA[
    .fil1 {fill:#00CD6A}
    .fil5 {fill:#6699FF}
    .fil4 {fill:red}
    .fil2 {fill:#FF6600}
    .fil3 {fill:#FFCC00}
    .fil0 {fill:black;fill-rule:nonzero}
    .fil6 {fill:#666666;fill-rule:nonzero}
   ]]>
  </style>
 </defs>
 <g id="Layer_x0020_1">
  <metadata id="CorelCorpID_0Corel-Layer"/>
  <g id="_1294229218928">
   <path class="fil0" d="M84.72 232.85l31.93 0 0 -109.34 -31.93 0 0 11.48c-7.72,-8.35 -18.99,-14.19 -32.55,-14.19 -30.26,0 -52.17,22.33 -52.17,57.38 0,35.06 21.91,57.38 52.17,57.38 13.56,0 24.83,-5.84 32.55,-13.98l0 11.27zm-24.62 -25.25c-15.86,0 -27.75,-10.43 -27.75,-29.42 0,-18.99 11.89,-29.42 27.75,-29.42 10.02,0 20.03,5.01 24.62,14.19l0 30.68c-4.59,8.97 -14.61,13.98 -24.62,13.98zm79.09 25.25l31.93 0 0 -148.16 -31.93 0 0 148.16zm54.46 0l31.93 0 0 -148.16 -31.93 0 0 148.16zm232.88 2.71c22.12,0 37.56,-10.01 48.83,-26.92l-21.91 -17.32c-5.63,8.97 -13.35,16.28 -25.04,16.28 -17.32,0 -27.34,-11.69 -27.34,-29.42 0,-17.74 10.02,-29.42 27.34,-29.42 11.69,0 19.41,7.3 25.04,16.28l21.91 -17.32c-11.27,-16.9 -26.71,-26.92 -48.83,-26.92 -37.98,0 -57.8,28.59 -57.8,57.38 0,28.8 19.82,57.38 57.8,57.38zm63.44 -2.71l31.93 0 0 -67.19c2.3,-8.56 9.6,-16.9 21.28,-16.9 14.19,0 20.87,7.93 20.87,22.74l0 61.35 31.93 0 0 -64.69c0,-26.92 -11.89,-47.37 -40.48,-47.37 -16.28,0 -27.75,7.1 -33.6,16.9l0 -53 -31.93 0 0 148.16zm206.37 0l31.93 0 0 -109.34 -31.93 0 0 11.48c-7.72,-8.35 -18.99,-14.19 -32.55,-14.19 -30.26,0 -52.17,22.33 -52.17,57.38 0,35.06 21.91,57.38 52.17,57.38 13.56,0 24.83,-5.84 32.55,-13.98l0 11.27zm-24.62 -25.25c-15.86,0 -27.75,-10.43 -27.75,-29.42 0,-18.99 11.89,-29.42 27.75,-29.42 10.02,0 20.03,5.01 24.62,14.19l0 30.68c-4.59,8.97 -14.61,13.98 -24.62,13.98zm129.59 26.71c4.38,0 9.81,-0.63 13.98,-1.46l0 -25.25 -6.05 0c-11.69,0 -17.95,-4.59 -17.95,-17.11l0 -41.73 24 0 0 -25.25 -24 0 0 -27.54 -30.88 0 0 27.54 -18.78 0 0 25.25 17.74 0 0 39.86c0,31.93 14.19,45.7 41.94,45.7z"/>
   <circle class="fil1" cx="293.76" cy="191.89" r="45.17"/>
   <circle class="fil2" cx="345.02" cy="79.82" r="33.88"/>
   <circle class="fil3" cx="456.21" cy="25.96" r="25.96"/>
   <circle class="fil4" cx="560.28" cy="32.86" r="20.36"/>
   <circle class="fil5" cx="637.79" cy="89.36" r="14.45"/>
   <path class="fil6" d="M134.7 310.06l7.3 0 2.97 -7.79 16.39 0 2.97 7.79 7.3 0 -14.33 -36.77 -8.27 0 -14.33 36.77zm680.58 -21.2l-115.98 0 0 3.45 115.98 0 0 -3.45zm-699.3 0l-115.98 0 0 3.45 115.98 0 0 -3.45zm37.16 -8.06l5.84 15.36 -11.68 0 5.84 -15.36zm21.69 29.26l6.87 0 0 -38.4 -6.87 0 0 38.4zm13.41 0l6.87 0 0 -38.4 -6.87 0 0 38.4zm42.4 0.76c7.62,0 13.3,-3.57 16.49,-9.03l-5.25 -3.89c-2.33,3.89 -5.73,6.38 -11.09,6.38 -7.14,0 -11.63,-5.46 -11.63,-12.6 0,-7.14 4.49,-12.6 11.63,-12.6 5.35,0 8.76,2.49 11.09,6.38l5.25 -3.89c-3.19,-5.46 -8.87,-9.03 -16.49,-9.03 -10.87,0 -18.71,8.17 -18.71,19.15 0,10.98 7.84,19.14 18.71,19.14zm20.87 -0.76l6.87 0 0 -17.52c0.59,-2.16 2.7,-4.87 6.38,-4.87 4.06,0 6.17,2.32 6.17,6.76l0 15.63 6.87 0 0 -16.39c0,-7.14 -3.35,-12.12 -10.6,-12.12 -4.33,0 -7.3,2.06 -8.81,4.54l0 -14.44 -6.87 0 0 38.4zm53.05 0l6.87 0 0 -27.85 -6.87 0 0 3.25c-2.06,-2.32 -5.08,-3.89 -8.71,-3.89 -7.73,0 -13.41,5.79 -13.41,14.6 0,8.81 5.68,14.55 13.41,14.55 3.62,0 6.65,-1.51 8.71,-3.84l0 3.19zm-7.19 -5.46c-4.49,0 -7.95,-3.08 -7.95,-8.44 0,-5.41 3.46,-8.49 7.95,-8.49 3.08,0 5.95,1.57 7.19,4.22l0 8.54c-1.24,2.6 -4.11,4.17 -7.19,4.17zm32.88 5.78c1.03,0 2.16,-0.11 3.08,-0.32l0 -5.52 -1.3 0c-3.46,0 -5.14,-1.24 -5.14,-4.81l0 -12 6.44 0 0 -5.52 -6.44 0 0 -7.09 -6.65 0 0 7.09 -4.87 0 0 5.52 4.65 0 0 11.68c0,7.62 3.46,10.98 10.22,10.98zm7.3 -0.32l8.33 0 0 -8.28 -8.33 0 0 8.28zm40.56 0.76c10.87,0 18.71,-8.17 18.71,-19.14 0,-10.98 -7.84,-19.15 -18.71,-19.15 -10.87,0 -18.71,8.17 -18.71,19.15 0,10.98 7.84,19.14 18.71,19.14zm0 -31.75c7.08,0 11.46,5.46 11.46,12.6 0,7.14 -4.38,12.6 -11.46,12.6 -7.08,0 -11.47,-5.46 -11.47,-12.6 0,-7.14 4.38,-12.6 11.47,-12.6zm23.85 30.99l6.87 0 0 -17.52c0.7,-2.54 2.97,-4.87 6.38,-4.87 4.06,0 6.17,2.32 6.17,6.76l0 15.63 6.87 0 0 -16.39c0,-7.14 -3.35,-12.12 -10.6,-12.12 -4.33,0 -7.3,2.06 -8.81,4.54l0 -3.89 -6.87 0 0 27.85zm45.64 0.7c5.3,0 9.41,-2.43 12.01,-5.57l-3.79 -4.49c-1.62,2.22 -4.49,4.11 -7.9,4.11 -4.81,0 -7.41,-2.54 -8.11,-6.27l20.17 0c0.16,-1.13 0.33,-2.43 0.33,-3.35 0,-8 -5.3,-13.63 -13.41,-13.63 -8.11,0 -14.01,5.95 -14.01,14.66 0,8.11 5.68,14.55 14.71,14.55zm-0.7 -23.52c3.73,0 6.22,2.06 6.6,5.68l-13.57 0c0.92,-3.68 3.41,-5.68 6.98,-5.68zm43.1 23.58c8.49,0 14.28,-4.87 14.28,-11.95 0,-6.22 -4.44,-10.01 -12,-11.14l-3.14 -0.49c-3.19,-0.49 -4.81,-2.05 -4.81,-4.22 0,-2.22 2.16,-4.16 5.84,-4.16 3.3,0 6.38,1.46 8.65,4.27l4.49 -4.65c-2.65,-3.46 -7.3,-5.95 -12.98,-5.95 -8.22,0 -13.31,4.98 -13.31,11.2 0,5.68 4.38,9.41 10.87,10.38l3.19 0.49c4.33,0.65 5.95,2.43 5.95,4.76 0,2.87 -2.38,5.14 -6.92,5.14 -5.57,0 -9.14,-3.19 -11.25,-6.49l-4.6 4.49c2.6,3.95 7.25,8.33 15.74,8.33zm32.5 0c9.68,0 14.77,-6.98 14.77,-14.65 0,-7.63 -5.08,-14.6 -14.77,-14.6 -9.68,0 -14.76,6.98 -14.76,14.6 0,7.68 5.08,14.65 14.76,14.65zm0 -23.14c4.49,0 7.79,3.35 7.79,8.49 0,5.19 -3.3,8.54 -7.79,8.54 -4.49,0 -7.79,-3.35 -7.79,-8.54 0,-5.14 3.3,-8.49 7.79,-8.49zm19.68 22.39l6.87 0 0 -38.4 -6.87 0 0 38.4zm39.37 -27.85l-6.87 0 0 17.52c-0.7,2.54 -2.97,4.87 -6.38,4.87 -4.06,0 -6.16,-2.33 -6.16,-6.76l0 -15.63 -6.87 0 0 16.39c0,7.14 3.35,12.12 10.6,12.12 4.33,0 7.3,-2.06 8.81,-4.54l0 3.89 6.87 0 0 -27.85zm18.77 28.17c1.03,0 2.16,-0.11 3.08,-0.32l0 -5.52 -1.3 0c-3.46,0 -5.14,-1.24 -5.14,-4.81l0 -12 6.44 0 0 -5.52 -6.44 0 0 -7.09 -6.65 0 0 7.09 -4.87 0 0 5.52 4.65 0 0 11.68c0,7.62 3.46,10.98 10.22,10.98zm7.68 -0.32l6.87 0 0 -27.85 -6.87 0 0 27.85zm-0.11 -32.56l7.03 0 0 -7.14 -7.03 0 0 7.14zm26.72 33.31c9.68,0 14.76,-6.98 14.76,-14.65 0,-7.63 -5.08,-14.6 -14.76,-14.6 -9.68,0 -14.76,6.98 -14.76,14.6 0,7.68 5.08,14.65 14.76,14.65zm0 -23.14c4.49,0 7.79,3.35 7.79,8.49 0,5.19 -3.3,8.54 -7.79,8.54 -4.49,0 -7.79,-3.35 -7.79,-8.54 0,-5.14 3.3,-8.49 7.79,-8.49zm19.68 22.39l6.87 0 0 -17.52c0.7,-2.54 2.97,-4.87 6.38,-4.87 4.06,0 6.17,2.32 6.17,6.76l0 15.63 6.87 0 0 -16.39c0,-7.14 -3.35,-12.12 -10.6,-12.12 -4.33,0 -7.3,2.06 -8.81,4.54l0 -3.89 -6.87 0 0 27.85z"/>
  </g>
 </g>
</svg>
